<?xml version="1.0"?>
<svg xmlns:rdf="http://www.w3.org/1999/02/22-rdf-syntax-ns#" xmlns="http://www.w3.org/2000/svg" xmlns:cc="http://web.resource.org/cc/" xmlns:xlink="http://www.w3.org/1999/xlink" xmlns:dc="http://purl.org/dc/elements/1.1/" xmlns:svg="http://www.w3.org/2000/svg" id="svg2" viewBox="0 0 576.84 451.19" version="1.0">
  <defs id="defs4">
    <radialGradient id="radialGradient3318" gradientUnits="userSpaceOnUse" cy="434.95" cx="318.08" gradientTransform="matrix(0 .96845 -1.0593 0 795.93 169.32)" r="279.59">
      <stop id="stop2424" stop-color="#d6ff01" offset="0"/>
      <stop id="stop2426" stop-color="#00c003" offset="1"/>
    </radialGradient>
  </defs>
  <g id="layer1" transform="translate(-47.094 -233.69)" fill-rule="evenodd">
    <path id="path2410" fill="url(#radialGradient3318)" d="m56.688 239.97c31.541 36.78 61.142 78.04 71.122 126.25 3.17 17.3-0.52 34.85-4.7 51.48-3.11 18.91-3.31 39.22 4.48 56.92 23.65-18 56.06-16.37 83.67-10.18 17.07 3.98 35.08 10.02 47.05 23.28 1.45 3.71-4.25 4.72-6 2.16-33.61-19.06-75.65-14.2-109.99 0.4-13.6 5.69-26.61 12.79-38.91 20.91 30.2 16.64 53.22 46.17 60.09 80.12 6.49 25.63 10.49 54.76 31.44 73.16 7.48 6.86 16.02 12.48 25.47 16.31 18.61-37.71 46.14-74.12 86.34-90.09 17.5-7.61 38.06-8.52 55.63-0.69 38.54 14.16 65.43 48.05 84.5 83.06 1.96 2 1.54 7.96 5.03 7.63 23.66-10.68 42.48-32.27 47.71-58.03 7.72-29.31 12.75-61.66 34.32-84.47 9.62-10.77 21.24-19.61 33.72-26.97-35-23.25-77.87-39.52-120.45-31.87-13.84 2.53-26.53 8.95-38.87 15.56 8.79-18.42 30.29-24.36 48.38-29.74 27.21-6.93 58.65-8.39 83.25 6.83 3 3.29 4.63 2.38 5.33-1.98 8.87-25.29 3.21-52.62-2.64-77.9-3.78-36.71 14.32-70.83 33.01-101.05 11.71-18.37 25.05-35.65 39.39-52.04-91.5 25.53-178.31 74.93-239.09 148.72-13.06 15.94-24.43 33.09-34.81 50.78 1.86-45.36 3.22-91.92 19.72-134.78 4.28-2.84 9.2 3.39 13.34-0.53 6.04-3.04 6.98-13.92-0.69-15.34-8.48-1.31-13 7.91-14.68 14.81-12.92 36.43-16.07 75.46-19.12 113.81-0.87 9.64 0.16 19.82-2.04 29.16-2.59 3.08-6.62-1.09-5.48-4.25-1.69-48.61-5.32-98.18-21.9-144.16-1.54-8.32-15.39-14.25-18.22-3.91-2.27 9.28 11.2 14.89 16.91 7.69 16.69 40.99 18.71 85.88 20.53 129.59-3.51 3.64-6.43-2.33-7.44-5-46.19-74.83-119.83-129.46-200.03-163.5-21.46-9.19-43.565-17.15-66.185-23.09l0.655 0.76 0.158 0.18z"/>
    <path id="path3321" d="m47.094 233.69s94.846 99.08 76.626 166.97c-14.1 52.51 2.87 78.93 2.87 78.93s18.78-22.56 71.1-14.71c42.42 6.36 57.5 23.28 57.5 23.28s-59.63-43.13-157.6 23.25c99.74 55.06 34.84 134.14 124 173.47 1.25-0.18 37.7-91.53 113.94-97.79 76.22 6.28 112.66 97.61 113.91 97.79 89.16-39.33 24.26-118.41 124-173.47-97.96-66.38-157.6-23.25-157.6-23.25s15.08-16.92 57.5-23.28c52.32-7.85 71.1 14.71 71.1 14.71s16.97-26.42 2.87-78.93c-18.22-67.89 76.63-166.97 76.63-166.97s-187.16 39.63-279.41 193.59c0.35-11.92 1.41-34.53 4.75-62.25 4.59-38.01 14.16-59.37 14.16-59.37s8.29 5.46 15.56-2.85c9.87-11.28-4.61-24.4-15.56-14.84-12.55 10.95-26.99 85.97-27.56 154.84-0.13 0.24-0.26 0.48-0.38 0.72-0.12-0.24-0.22-0.48-0.34-0.72-0.58-68.87-15.01-143.89-27.57-154.84-10.95-9.56-25.43 3.56-15.56 14.84 7.28 8.31 15.56 2.85 15.56 2.85s9.57 21.36 14.16 59.37c3.35 27.72 4.4 50.33 4.75 62.25-92.25-153.96-279.41-193.59-279.41-193.59zm69.596 53.37s56.34 13.55 114.9 57.13c73.54 54.71 103.57 129.97 103.57 129.97l0.34-14.97 0.38 14.97s30.03-75.26 103.56-129.97c58.56-43.58 114.9-57.13 114.9-57.13s-40.95 68.82-23.53 117.47c14 39.1-1.75 49.25-1.75 49.25s-94.42-24.98-143.62 57.22c71.38-39.11 115.85-22.06 156.18-1 0 0-43.71 28.23-49.59 70.69-7.02 50.71-31.37 62.81-31.37 62.81s-33.41-40.83-61.69-53.56c-26.69-12.01-59.44-17.7-63.09-18.32v-0.12s-0.3 0.05-0.35 0.06c-0.06-0.01-0.37-0.06-0.37-0.06v0.12c-3.72 0.63-36.44 6.32-63.1 18.32-28.28 12.73-61.68 53.56-61.68 53.56s-24.36-12.1-31.38-62.81c-5.88-42.46-49.59-70.69-49.59-70.69 40.33-21.06 84.8-38.11 156.18 1-49.2-82.2-143.62-57.22-143.62-57.22s-15.75-10.15-1.75-49.25c17.42-48.65-23.53-117.47-23.53-117.47z"/>
    <path id="path3201" stroke="#000" stroke-width="1px" d="m318.94 440.84c24.7 47.11-3.22 85-3.22 85s-4.25 41.34 19.44 125.13c23.68-83.79 19.46-125.13 19.46-125.13 0.01 0-27.95-37.89-3.24-85l-16.22 14.28-16.22-14.28z"/>
    <path id="path3359" fill="#23ca02" d="m144.8 310.31c111.02 41.72 166.17 140.01 166.17 140.01s-14.85-31.82-82.73-60.11c-65.27-27.19-67.18-7.78-67.18-7.78 3.07-16.97-1.65-43.84-16.26-72.12z"/>
    <path id="path3377" fill="#23ca02" d="m525.22 310.31c-111.01 41.72-166.17 140.01-166.17 140.01s14.85-31.82 82.74-60.11c65.27-27.19 67.17-7.78 67.17-7.78-3.06-16.97 1.65-43.84 16.26-72.12z"/>
    <path id="path3413" fill="#23ca02" d="m156.65 511.63c57.28-28.29 114.37 4.8 114.37 4.8s-35-9.13-63.97-0.51c-18.67 5.55-24.97 27.01-24.97 27.01-5.06-12.59-13.2-24.38-25.43-31.3z"/>
    <path id="path3417" fill="#23ca02" d="m514.02 511.63c-57.28-28.29-114.37 4.8-114.37 4.8s35-9.13 63.97-0.51c18.66 5.55 24.97 27.01 24.97 27.01 5.06-12.59 13.2-24.38 25.43-31.3z"/>
  </g>
  <metadata>
    <rdf:RDF>
      <cc:Work>
        <dc:format>image/svg+xml</dc:format>
        <dc:type rdf:resource="http://purl.org/dc/dcmitype/StillImage"/>
        <cc:license rdf:resource="http://creativecommons.org/licenses/publicdomain/"/>
        <dc:publisher>
          <cc:Agent rdf:about="http://openclipart.org/">
            <dc:title>Openclipart</dc:title>
          </cc:Agent>
        </dc:publisher>
        <dc:title>Abstract butterfly</dc:title>
        <dc:date>2008-07-08T08:11:56</dc:date>
        <dc:description>For Lena</dc:description>
        <dc:source>http://openclipart.org/detail/17643/abstract-butterfly-by-lemmling</dc:source>
        <dc:creator>
          <cc:Agent>
            <dc:title>lemmling</dc:title>
          </cc:Agent>
        </dc:creator>
        <dc:subject>
          <rdf:Bag>
            <rdf:li>abstract</rdf:li>
            <rdf:li>animal</rdf:li>
            <rdf:li>butterfly</rdf:li>
            <rdf:li>clip art</rdf:li>
            <rdf:li>clipart</rdf:li>
            <rdf:li>colour</rdf:li>
            <rdf:li>decorative</rdf:li>
            <rdf:li>image</rdf:li>
            <rdf:li>insect</rdf:li>
            <rdf:li>media</rdf:li>
            <rdf:li>outline</rdf:li>
            <rdf:li>png</rdf:li>
            <rdf:li>public domain</rdf:li>
            <rdf:li>svg</rdf:li>
          </rdf:Bag>
        </dc:subject>
      </cc:Work>
      <cc:License rdf:about="http://creativecommons.org/licenses/publicdomain/">
        <cc:permits rdf:resource="http://creativecommons.org/ns#Reproduction"/>
        <cc:permits rdf:resource="http://creativecommons.org/ns#Distribution"/>
        <cc:permits rdf:resource="http://creativecommons.org/ns#DerivativeWorks"/>
      </cc:License>
    </rdf:RDF>
  </metadata>
</svg>
